<mxfile host="app.diagrams.net" modified="2021-01-09T18:17:13.722Z" agent="5.0 (Windows NT 10.0; Win64; x64) AppleWebKit/537.36 (KHTML, like Gecko) Chrome/87.0.4280.60 YaBrowser/20.12.0.963 Yowser/2.5 Safari/537.36" etag="2JMIhNvjoJaXP4vB-753" version="14.1.8" type="github">
  <diagram id="7yq74waQsSMx8QALpEU_" name="Page-1">
    <mxGraphModel dx="1102" dy="586" grid="1" gridSize="10" guides="1" tooltips="1" connect="1" arrows="1" fold="1" page="1" pageScale="1" pageWidth="827" pageHeight="1169" math="0" shadow="0">
      <root>
        <mxCell id="0" />
        <mxCell id="1" parent="0" />
        <mxCell id="dAaC0JCUroTFfeustjqR-1" value="&lt;h1&gt;Task 1&lt;/h1&gt;&lt;div&gt;&lt;h3 style=&quot;box-sizing: border-box ; font-family: &amp;#34;roboto&amp;#34; , &amp;#34;san francisco&amp;#34; , &amp;#34;helvetica neue&amp;#34; , &amp;#34;helvetica&amp;#34; , &amp;#34;arial&amp;#34; ; font-weight: 500 ; line-height: 24px ; color: rgb(63 , 83 , 104) ; margin-top: 20px ; margin-bottom: 10px ; font-size: 17px ; background-color: rgb(255 , 255 , 255)&quot;&gt;Написать программу, которая будет складывать, вычитать, умножать или делить два числа. Числа и знак операции вводятся пользователем. После выполнения вычисления программа не завершается, а запрашивает новые данные для вычислений. Завершение программы должно выполняться при вводе символа &#39;0&#39; в качестве знака операции. Если пользователь вводит неверный знак (не &#39;0&#39;, &#39;+&#39;, &#39;-&#39;, &#39;&lt;em style=&quot;box-sizing: border-box&quot;&gt;&#39;&lt;/em&gt;, &#39;/&#39;), программа должна сообщать об ошибке и снова запрашивать знак операции. Также она должна сообщать пользователю о невозможности деления на ноль, если он ввел его в качестве делителя.&lt;/h3&gt;&lt;/div&gt;" style="text;html=1;strokeColor=none;fillColor=none;spacing=5;spacingTop=-20;whiteSpace=wrap;overflow=hidden;rounded=0;align=center;" vertex="1" parent="1">
          <mxGeometry x="40" y="10" width="760" height="230" as="geometry" />
        </mxCell>
      </root>
    </mxGraphModel>
  </diagram>
</mxfile>
